<svg width="735" height="246" viewBox="0 0 735 246" fill="none" xmlns="http://www.w3.org/2000/svg">
<path d="M323.265 197.92C297.173 197.92 282.76 182.637 282.76 158.285V104.733H305.87V158.782C305.87 169.591 312.083 176.301 323.265 176.301C334.323 176.301 340.536 169.716 340.536 158.782V104.733H363.646V158.285C363.646 182.637 349.357 197.92 323.265 197.92Z" fill="#E5D9A4"/>
<path d="M424.464 195.435H401.85V161.391H397.378L371.658 104.733H395.265L412.039 143.996H415.145L430.055 104.733H452.42L428.937 161.391H424.464V195.435Z" fill="#E5D9A4"/>
<path d="M503.099 197.92C470.048 197.92 454.145 171.828 454.145 151.202V148.469C454.145 125.731 471.042 102 503.099 102C534.906 102 552.053 125.731 552.053 148.469V151.202C552.053 171.828 536.025 197.92 503.099 197.92ZM503.099 176.301C518.878 176.301 528.694 164.87 528.694 149.96C528.694 134.18 518.754 123.619 503.099 123.619C487.319 123.619 477.503 134.18 477.503 149.96C477.503 164.87 487.195 176.301 503.099 176.301Z" fill="#E5D9A4"/>
<path d="M606.59 195.435H583.977V161.391H579.504L553.784 104.733H577.392L594.165 143.996H597.271L612.181 104.733H634.546L611.063 161.391H606.59V195.435Z" fill="#E5D9A4"/>
<path d="M685.225 197.92C652.175 197.92 636.271 171.828 636.271 151.202V148.469C636.271 125.731 653.169 102 685.225 102C717.033 102 734.179 125.731 734.179 148.469V151.202C734.179 171.828 718.151 197.92 685.225 197.92ZM685.225 176.301C701.004 176.301 710.82 164.87 710.82 149.96C710.82 134.18 700.88 123.619 685.225 123.619C669.445 123.619 659.63 134.18 659.63 149.96C659.63 164.87 669.321 176.301 685.225 176.301Z" fill="#E5D9A4"/>
<path fill-rule="evenodd" clip-rule="evenodd" d="M225.774 95.1711C222.609 95.9889 219.733 97.9339 217.634 101.785C216.841 103.239 215.019 103.776 213.564 102.983C212.11 102.19 211.573 100.368 212.366 98.9133C215.267 93.5896 219.516 90.5912 224.273 89.3619C228.924 88.16 233.863 88.6928 238.285 89.9946C242.723 91.301 246.857 93.444 250.017 95.7322C251.597 96.877 252.992 98.0999 254.075 99.3281C254.999 100.377 255.873 101.628 256.296 102.992C266.896 122.419 258.068 144.61 248.471 159.724C243.569 167.444 238.253 173.67 234.578 177.272C233.656 178.176 232.811 178.94 232.08 179.533C231.424 180.064 230.635 180.647 229.868 180.964C229.652 181.053 229.336 181.166 228.954 181.224C228.598 181.278 227.937 181.323 227.203 181.019C226.349 180.665 225.743 179.98 225.454 179.195C225.208 178.525 225.242 177.93 225.285 177.607C225.367 176.969 225.614 176.42 225.776 176.09C225.967 175.701 226.209 175.291 226.481 174.872C227.2 173.759 228.531 173.281 229.747 173.594C229.948 173.405 230.158 173.203 230.378 172.987C233.719 169.712 238.746 163.846 243.406 156.508C252.88 141.588 260.004 121.958 250.878 105.591C250.738 105.341 250.635 105.071 250.572 104.791C250.547 104.684 250.345 104.17 249.573 103.295C248.853 102.478 247.815 101.546 246.497 100.592C243.861 98.6824 240.339 96.854 236.59 95.7503C232.825 94.6419 229.045 94.3258 225.774 95.1711ZM231.13 178.805C231.129 178.805 231.133 178.796 231.141 178.777C231.135 178.795 231.13 178.804 231.13 178.805Z" fill="#E5D9A4"/>
<path fill-rule="evenodd" clip-rule="evenodd" d="M225.774 95.1711C222.609 95.9889 219.733 97.9339 217.634 101.785C216.841 103.239 215.019 103.776 213.564 102.983C212.11 102.19 211.573 100.368 212.366 98.9133C215.267 93.5896 219.516 90.5912 224.273 89.3619C228.924 88.16 233.863 88.6928 238.285 89.9946C242.723 91.301 246.857 93.444 250.017 95.7322C251.597 96.877 252.992 98.0999 254.075 99.3281C254.999 100.377 255.873 101.628 256.296 102.992C266.896 122.419 258.068 144.61 248.471 159.724C243.569 167.444 238.253 173.67 234.578 177.272C233.656 178.176 232.811 178.94 232.08 179.533C231.424 180.064 230.635 180.647 229.868 180.964C229.652 181.053 229.336 181.166 228.954 181.224C228.598 181.278 227.937 181.323 227.203 181.019C226.349 180.665 225.743 179.98 225.454 179.195C225.208 178.525 225.242 177.93 225.285 177.607C225.367 176.969 225.614 176.42 225.776 176.09C225.967 175.701 226.209 175.291 226.481 174.872C227.2 173.759 228.531 173.281 229.747 173.594C229.948 173.405 230.158 173.203 230.378 172.987C233.719 169.712 238.746 163.846 243.406 156.508C252.88 141.588 260.004 121.958 250.878 105.591C250.738 105.341 250.635 105.071 250.572 104.791C250.547 104.684 250.345 104.17 249.573 103.295C248.853 102.478 247.815 101.546 246.497 100.592C243.861 98.6824 240.339 96.854 236.59 95.7503C232.825 94.6419 229.045 94.3258 225.774 95.1711ZM231.13 178.805C231.129 178.805 231.133 178.796 231.141 178.777C231.135 178.795 231.13 178.804 231.13 178.805Z" fill="black" fill-opacity="0.6"/>
<path fill-rule="evenodd" clip-rule="evenodd" d="M225.774 95.1711C222.609 95.9889 219.733 97.9339 217.634 101.785C216.841 103.239 215.019 103.776 213.564 102.983C212.11 102.19 211.573 100.368 212.366 98.9133C215.267 93.5896 219.516 90.5912 224.273 89.3619C228.924 88.16 233.863 88.6928 238.285 89.9946C242.723 91.301 246.857 93.444 250.017 95.7322C251.597 96.877 252.992 98.0999 254.075 99.3281C254.999 100.377 255.873 101.628 256.296 102.992C266.896 122.419 258.068 144.61 248.471 159.724C243.569 167.444 238.253 173.67 234.578 177.272C233.656 178.176 232.811 178.94 232.08 179.533C231.424 180.064 230.635 180.647 229.868 180.964C229.652 181.053 229.336 181.166 228.954 181.224C228.598 181.278 227.937 181.323 227.203 181.019C226.349 180.665 225.743 179.98 225.454 179.195C225.208 178.525 225.242 177.93 225.285 177.607C225.367 176.969 225.614 176.42 225.776 176.09C225.967 175.701 226.209 175.291 226.481 174.872C227.2 173.759 228.531 173.281 229.747 173.594C229.948 173.405 230.158 173.203 230.378 172.987C233.719 169.712 238.746 163.846 243.406 156.508C252.88 141.588 260.004 121.958 250.878 105.591C250.738 105.341 250.635 105.071 250.572 104.791C250.547 104.684 250.345 104.17 249.573 103.295C248.853 102.478 247.815 101.546 246.497 100.592C243.861 98.6824 240.339 96.854 236.59 95.7503C232.825 94.6419 229.045 94.3258 225.774 95.1711ZM231.13 178.805C231.129 178.805 231.133 178.796 231.141 178.777C231.135 178.795 231.13 178.804 231.13 178.805Z" stroke="black" stroke-width="0.5" stroke-miterlimit="2.61313" stroke-linecap="round" stroke-linejoin="round"/>
<path fill-rule="evenodd" clip-rule="evenodd" d="M250.897 90.0562C258.667 87.9708 268.944 91.2281 282.329 101.991C283.62 103.029 283.825 104.918 282.786 106.209C281.748 107.5 279.86 107.705 278.569 106.667C265.553 96.201 257.323 94.5439 252.452 95.8511C247.708 97.1244 244.78 101.625 243.414 107.212L240.5 106.5L243.414 107.212C242.202 112.172 242.706 119.303 244.278 127.384C245.83 135.366 248.34 143.881 250.816 151.418C252.474 156.466 254.078 160.966 255.374 164.599C256.026 166.428 256.599 168.037 257.062 169.385C257.4 170.37 257.685 171.234 257.887 171.926C257.987 172.27 258.078 172.608 258.146 172.917C258.201 173.17 258.289 173.613 258.284 174.084C258.281 174.282 258.265 174.84 257.976 175.452C257.815 175.794 257.526 176.244 257.022 176.617C256.491 177.01 255.883 177.196 255.304 177.216C254.306 177.25 253.611 176.792 253.417 176.66C253.136 176.469 252.926 176.265 252.802 176.137C252.35 175.67 251.869 174.967 251.415 174.264C250.787 173.293 250.792 172.095 251.325 171.154C250.911 169.951 250.382 168.468 249.776 166.767C248.466 163.091 246.792 158.393 245.116 153.291C242.608 145.657 240.01 136.869 238.388 128.529C236.785 120.288 236.048 112.077 237.586 105.787L237.586 105.787C239.154 99.3745 243 92.1756 250.897 90.0562ZM252.3 174.282C252.3 174.282 252.299 174.276 252.297 174.264C252.3 174.276 252.3 174.282 252.3 174.282Z" fill="#E5D9A4"/>
<path fill-rule="evenodd" clip-rule="evenodd" d="M250.897 90.0562C258.667 87.9708 268.944 91.2281 282.329 101.991C283.62 103.029 283.825 104.918 282.786 106.209C281.748 107.5 279.86 107.705 278.569 106.667C265.553 96.201 257.323 94.5439 252.452 95.8511C247.708 97.1244 244.78 101.625 243.414 107.212L240.5 106.5L243.414 107.212C242.202 112.172 242.706 119.303 244.278 127.384C245.83 135.366 248.34 143.881 250.816 151.418C252.474 156.466 254.078 160.966 255.374 164.599C256.026 166.428 256.599 168.037 257.062 169.385C257.4 170.37 257.685 171.234 257.887 171.926C257.987 172.27 258.078 172.608 258.146 172.917C258.201 173.17 258.289 173.613 258.284 174.084C258.281 174.282 258.265 174.84 257.976 175.452C257.815 175.794 257.526 176.244 257.022 176.617C256.491 177.01 255.883 177.196 255.304 177.216C254.306 177.25 253.611 176.792 253.417 176.66C253.136 176.469 252.926 176.265 252.802 176.137C252.35 175.67 251.869 174.967 251.415 174.264C250.787 173.293 250.792 172.095 251.325 171.154C250.911 169.951 250.382 168.468 249.776 166.767C248.466 163.091 246.792 158.393 245.116 153.291C242.608 145.657 240.01 136.869 238.388 128.529C236.785 120.288 236.048 112.077 237.586 105.787L237.586 105.787C239.154 99.3745 243 92.1756 250.897 90.0562ZM252.3 174.282C252.3 174.282 252.299 174.276 252.297 174.264C252.3 174.276 252.3 174.282 252.3 174.282Z" fill="black" fill-opacity="0.4"/>
<path d="M243.414 107.212C244.78 101.625 247.708 97.1244 252.452 95.8511C257.323 94.5439 265.553 96.201 278.569 106.667C279.86 107.705 281.748 107.5 282.786 106.209C283.825 104.918 283.62 103.029 282.329 101.991C268.944 91.2281 258.667 87.9708 250.897 90.0562C243 92.1756 239.154 99.3745 237.586 105.787L237.586 105.787C236.048 112.077 236.785 120.288 238.388 128.529C240.01 136.869 242.608 145.657 245.116 153.291C246.792 158.393 248.466 163.091 249.776 166.767C250.382 168.468 250.911 169.951 251.325 171.154C250.792 172.095 250.787 173.293 251.415 174.264C251.869 174.967 252.35 175.67 252.802 176.137C252.926 176.265 253.136 176.469 253.417 176.66C253.611 176.792 254.306 177.25 255.304 177.216C255.883 177.196 256.491 177.01 257.022 176.617C257.526 176.244 257.815 175.794 257.976 175.452C258.265 174.84 258.281 174.282 258.284 174.084C258.289 173.613 258.201 173.17 258.146 172.917C258.078 172.608 257.987 172.27 257.887 171.926C257.685 171.234 257.4 170.37 257.062 169.385C256.599 168.037 256.026 166.428 255.374 164.599C254.078 160.966 252.474 156.466 250.816 151.418C248.34 143.881 245.83 135.366 244.278 127.384C242.706 119.303 242.202 112.172 243.414 107.212ZM243.414 107.212L240.5 106.5L243.414 107.212ZM252.3 174.282C252.3 174.282 252.299 174.276 252.297 174.264C252.3 174.276 252.3 174.282 252.3 174.282Z" stroke="black" stroke-width="0.5" stroke-miterlimit="2.61313" stroke-linecap="round" stroke-linejoin="round"/>
<path d="M143.003 245.213C153.003 245.213 161.11 237.107 161.11 227.107C161.11 217.107 153.003 209 143.003 209C133.003 209 124.896 217.107 124.896 227.107C124.896 237.107 133.003 245.213 143.003 245.213Z" fill="#E5D9A4"/>
<path d="M231.527 245.213C241.527 245.213 249.634 237.107 249.634 227.107C249.634 217.107 241.527 209 231.527 209C221.527 209 213.42 217.107 213.42 227.107C213.42 237.107 221.527 245.213 231.527 245.213Z" fill="#E5D9A4"/>
<path fill-rule="evenodd" clip-rule="evenodd" d="M13.1616 0H83.2541L90.1901 26.3232H13.1616C5.92225 26.3232 0 20.401 0 13.1616C0 5.92225 5.92225 0 13.1616 0Z" fill="#E5D9A4"/>
<path fill-rule="evenodd" clip-rule="evenodd" d="M83.3118 0.723633L135.343 194.907L122.63 198.314C115.638 200.188 108.384 195.999 106.51 189.007L57.8853 7.53771L83.3118 0.724594V0.723633Z" fill="#E5D9A4"/>
<path fill-rule="evenodd" clip-rule="evenodd" d="M105.987 172.437H264.657V185.599C264.657 192.838 258.734 198.76 251.496 198.76H119.148C111.909 198.76 105.987 192.838 105.987 185.599V172.437Z" fill="#E5D9A4"/>
<path fill-rule="evenodd" clip-rule="evenodd" d="M282.778 119.606L264.182 189.007C262.308 195.999 255.055 200.187 248.063 198.313L235.35 194.906L259.982 102.974H271.56L273.471 103.485C280.463 105.359 284.651 112.612 282.777 119.605L282.778 119.606Z" fill="#E5D9A4"/>
<path fill-rule="evenodd" clip-rule="evenodd" d="M130.04 102.974H268.166C276.449 102.974 283.226 108.896 283.226 116.135V117.387L279.653 129.297H137.092L130.039 102.974H130.04ZM109.841 129.297H103.925V107.217L109.841 129.297Z" fill="#E5D9A4"/>
<path fill-rule="evenodd" clip-rule="evenodd" d="M81.022 37.27H159.504C166.743 37.27 172.666 43.1923 172.666 50.4316V63.5932H81.022V37.27Z" fill="#E5D9A4"/>
<path fill-rule="evenodd" clip-rule="evenodd" d="M172.201 47.0235L188.202 106.74L162.776 113.553L143.369 41.1243L156.082 37.7173C163.074 35.8434 170.328 40.0319 172.202 47.0235H172.201Z" fill="#E5D9A4"/>
<path fill-rule="evenodd" clip-rule="evenodd" d="M298.897 103.513L274.592 127.817L264.393 117.618C258.784 112.009 258.784 102.829 264.393 97.2201L268.3 93.3139C273.909 87.7046 283.089 87.7046 288.698 93.3139L298.897 103.513Z" fill="#E5D9A4" stroke="black" stroke-width="0.5" stroke-miterlimit="2.61313" stroke-linecap="round" stroke-linejoin="round"/>
<path fill-rule="evenodd" clip-rule="evenodd" d="M305.04 105.815C293.782 113.32 285.053 123.354 276.895 133.96L270.257 127.323C269.832 126.881 269.891 126.271 269.979 126.003C273.372 115.764 290.173 101.425 297.405 98.7649C297.529 98.7189 297.921 98.692 298.065 98.8398L305.04 105.815Z" fill="#E5D9A4" stroke="black" stroke-width="0.5" stroke-miterlimit="2.61313" stroke-linecap="round" stroke-linejoin="round"/>
<path fill-rule="evenodd" clip-rule="evenodd" d="M287.613 116.361C279.93 124.044 275.101 132.167 276.895 133.961C278.688 135.754 286.62 130.733 294.302 123.05C301.984 115.368 306.832 107.609 305.04 105.815C303.247 104.022 295.296 108.679 287.613 116.361Z" fill="#512A1E" stroke="#E5D9A4" stroke-width="0.5" stroke-miterlimit="2.61313" stroke-linecap="round" stroke-linejoin="round"/>
<path fill-rule="evenodd" clip-rule="evenodd" d="M308.508 127.764C307.505 128.766 305.865 128.766 304.863 127.764L293.541 116.443L297.186 112.797L308.508 124.118C309.51 125.12 309.51 126.761 308.508 127.764Z" fill="#E5D9A4" stroke="black" stroke-width="0.5" stroke-miterlimit="2.61313" stroke-linecap="round" stroke-linejoin="round"/>
<path fill-rule="evenodd" clip-rule="evenodd" d="M298.843 137.427C297.841 138.43 296.2 138.43 295.198 137.427L283.876 126.106L287.522 122.46L298.843 133.782C299.846 134.784 299.846 136.425 298.843 137.427Z" fill="#E5D9A4" stroke="black" stroke-width="0.5" stroke-miterlimit="2.61313" stroke-linecap="round" stroke-linejoin="round"/>
<path fill-rule="evenodd" clip-rule="evenodd" d="M269.773 91.9412L263.021 98.6938L261.933 97.6061C263.791 95.0871 266.092 92.786 268.686 90.8535L269.773 91.9412Z" fill="#FAEDBF"/>
<path fill-rule="evenodd" clip-rule="evenodd" d="M269.773 91.9412L263.021 98.6938L261.933 97.6061C263.791 95.0871 266.092 92.786 268.686 90.8535L269.773 91.9412Z" fill="#E5D9A4"/>
<path fill-rule="evenodd" clip-rule="evenodd" d="M269.773 91.9412L263.021 98.6938L261.933 97.6061C263.791 95.0871 266.092 92.786 268.686 90.8535L269.773 91.9412Z" stroke="black" stroke-width="0.5" stroke-miterlimit="2.61313" stroke-linecap="round" stroke-linejoin="round"/>
<path fill-rule="evenodd" clip-rule="evenodd" d="M231.641 135.332L192.697 131.442L194.33 115.099C195.227 106.111 203.316 99.4915 212.305 100.389L218.564 101.014C227.552 101.912 234.172 110.001 233.274 118.989L231.641 135.331V135.332Z" fill="#E5D9A4" stroke="black" stroke-width="0.5" stroke-miterlimit="2.61313" stroke-linecap="round" stroke-linejoin="round"/>
<path fill-rule="evenodd" clip-rule="evenodd" d="M234.042 142.405C219.31 137.897 204.172 137.441 188.943 137.9L190.006 127.264C190.089 126.571 190.668 126.182 190.969 126.067C202.439 121.672 227.19 126.138 234.75 130.592C234.879 130.669 235.186 130.995 235.159 131.228L234.042 142.405Z" fill="#E5D9A4" stroke="black" stroke-width="0.5" stroke-miterlimit="2.61313" stroke-linecap="round" stroke-linejoin="round"/>
<path fill-rule="evenodd" clip-rule="evenodd" d="M212.182 134.654C199.872 133.425 189.23 135.028 188.943 137.9C188.656 140.773 198.802 144.143 211.112 145.373C223.422 146.603 233.755 145.279 234.043 142.405C234.33 139.532 224.493 135.884 212.183 134.654H212.182Z" fill="#512A1E" stroke="#E5D9A4" stroke-width="0.5" stroke-miterlimit="2.61313" stroke-linecap="round" stroke-linejoin="round"/>
<path fill-rule="evenodd" clip-rule="evenodd" d="M220.836 101.324L210.015 100.243L210.189 98.4998C213.749 98.3203 217.435 98.688 221.01 99.5808L220.836 101.325V101.324Z" fill="#FAEDBF"/>
<path fill-rule="evenodd" clip-rule="evenodd" d="M220.836 101.324L210.015 100.243L210.189 98.4998C213.749 98.3203 217.435 98.688 221.01 99.5808L220.836 101.325V101.324Z" fill="#E5D9A4"/>
<path fill-rule="evenodd" clip-rule="evenodd" d="M220.836 101.324L210.015 100.243L210.189 98.4998C213.749 98.3203 217.435 98.688 221.01 99.5808L220.836 101.325V101.324Z" stroke="black" stroke-width="0.5" stroke-miterlimit="2.61313" stroke-linecap="round" stroke-linejoin="round"/>
<path d="M224.748 141.779C224.726 142 222.853 141.994 220.564 141.765C218.275 141.537 216.438 141.172 216.46 140.951C216.482 140.729 218.355 140.735 220.644 140.964C222.933 141.192 224.77 141.557 224.748 141.779Z" fill="#E5D9A4"/>
<path d="M208.02 139.699C207.998 139.92 206.125 139.914 203.836 139.685C201.547 139.457 199.71 139.092 199.732 138.871C199.754 138.649 201.628 138.655 203.916 138.884C206.205 139.112 208.042 139.477 208.02 139.699Z" fill="#E5D9A4"/>
</svg>
